# xmcd
#
# Track frame offsets: 
#        150
#        18195
#        38790
#        62349
#        85728
#        117035
#        149096
#        169060
#        182560
#
# Disc length: 2781 seconds
#
# Revision: 0
# Processed by: cddbd v1.5.2PL0 Copyright (c) Steve Scherf et al.
# Submitted via: ExactAudioCopy v0.99pb5
#
DISCID=6b0adb09
DTITLE=Big Jack Johnson - Juke Joint Saturday Night
DYEAR=2008
DGENRE=Blues
TTITLE0=Steppin' Out Tonight
TTITLE1=Flat Foot
TTITLE2=Rock Me
TTITLE3=Delta Juke Boogie
TTITLE4=The Way You Walk and Talk
TTITLE5=You Told Me
TTITLE6=Runnin' and Hidin'
TTITLE7=Jack's Guitar Groove
TTITLE8=Mississippi Blues
EXTD=
EXTT0=
EXTT1=
EXTT2=
EXTT3=
EXTT4=
EXTT5=
EXTT6=
EXTT7=
EXTT8=
PLAYORDER=
